<svg width="100%" height="100%" viewBox="0 0 24 24" version="1.1" xmlns="http://www.w3.org/2000/svg" xmlns:xlink="http://www.w3.org/1999/xlink" xml:space="preserve" xmlns:serif="http://www.serif.com/" style="fill-rule:evenodd;clip-rule:evenodd;stroke-linejoin:round;stroke-miterlimit:2;"><g id="Icon"><g><path d="M2.386,13.477l2.304,-1.383c0.396,-0.237 0.891,-0.237 1.286,0l1.276,0.766c0.871,0.522 1.959,0.522 2.83,-0l1.275,-0.766c0.396,-0.237 0.89,-0.237 1.286,0l1.275,0.766c0.871,0.522 1.959,0.522 2.83,-0l1.276,-0.766c0.395,-0.237 0.89,-0.237 1.286,0c-0,0 2.304,1.383 2.304,1.383c0.355,0.213 0.816,0.098 1.029,-0.257c0.213,-0.355 0.098,-0.816 -0.257,-1.029l-2.304,-1.383c-0.871,-0.522 -1.959,-0.522 -2.83,0l-1.276,0.765c-0.395,0.238 -0.89,0.238 -1.286,0l-1.275,-0.765c-0.871,-0.522 -1.959,-0.522 -2.83,0l-1.275,0.765c-0.396,0.238 -0.891,0.238 -1.286,0l-1.276,-0.765c-0.871,-0.522 -1.959,-0.522 -2.83,0l-2.304,1.383c-0.355,0.213 -0.47,0.674 -0.257,1.029c0.213,0.355 0.674,0.47 1.029,0.257Z"></path><path d="M2.386,17.477l2.304,-1.383c0.324,-0.194 0.713,-0.229 1.06,-0.106c0.39,0.138 0.819,-0.067 0.957,-0.457c0.138,-0.391 -0.067,-0.82 -0.457,-0.958c-0.764,-0.27 -1.62,-0.192 -2.332,0.235l-2.304,1.383c-0.355,0.213 -0.47,0.674 -0.257,1.029c0.213,0.355 0.674,0.47 1.029,0.257Z"></path><path d="M7.75,17.094c0.764,0.27 1.62,0.192 2.332,-0.234l1.275,-0.766c0.396,-0.237 0.89,-0.237 1.286,0l1.275,0.766c0.712,0.426 1.568,0.504 2.332,0.234c0.39,-0.138 0.595,-0.567 0.457,-0.957c-0.138,-0.39 -0.567,-0.595 -0.957,-0.457c-0.347,0.123 -0.736,0.087 -1.06,-0.107l-1.275,-0.765c-0.871,-0.522 -1.959,-0.522 -2.83,0l-1.275,0.765c-0.324,0.194 -0.713,0.23 -1.06,0.107c-0.39,-0.138 -0.819,0.067 -0.957,0.457c-0.138,0.39 0.067,0.819 0.457,0.957Z"></path><path d="M18.25,15.988c0.347,-0.123 0.736,-0.088 1.06,0.106c-0,0 2.304,1.383 2.304,1.383c0.355,0.213 0.816,0.098 1.029,-0.257c0.213,-0.355 0.098,-0.816 -0.257,-1.029l-2.304,-1.383c-0.712,-0.427 -1.568,-0.505 -2.332,-0.235c-0.39,0.138 -0.595,0.567 -0.457,0.958c0.138,0.39 0.567,0.595 0.957,0.457Z"></path><path d="M2.386,21.477l2.304,-1.383c0.396,-0.237 0.891,-0.237 1.286,0l1.276,0.766c0.871,0.522 1.959,0.522 2.83,-0l1.275,-0.766c0.355,-0.213 0.47,-0.674 0.257,-1.029c-0.213,-0.355 -0.674,-0.47 -1.029,-0.257l-1.275,0.765c-0.396,0.238 -0.891,0.238 -1.286,0l-1.276,-0.765c-0.871,-0.522 -1.959,-0.522 -2.83,0l-2.304,1.383c-0.355,0.213 -0.47,0.674 -0.257,1.029c0.213,0.355 0.674,0.47 1.029,0.257Z"></path><path d="M12.643,20.094l1.275,0.766c0.871,0.522 1.959,0.522 2.83,-0l1.276,-0.766c0.395,-0.237 0.89,-0.237 1.286,0c-0,0 2.304,1.383 2.304,1.383c0.355,0.213 0.816,0.098 1.029,-0.257c0.213,-0.355 0.098,-0.816 -0.257,-1.029l-2.304,-1.383c-0.871,-0.522 -1.959,-0.522 -2.83,0l-1.276,0.765c-0.395,0.238 -0.89,0.238 -1.286,0c0,0 -1.275,-0.765 -1.275,-0.765c-0.355,-0.213 -0.816,-0.098 -1.029,0.257c-0.213,0.355 -0.098,0.816 0.257,1.029Z"></path><path d="M12.75,8.166l0,-4.5c-0,-0.414 -0.336,-0.75 -0.75,-0.75c-0.414,0 -0.75,0.336 -0.75,0.75l0,4.5c-0,0.414 0.336,0.75 0.75,0.75c0.414,0 0.75,-0.336 0.75,-0.75Z"></path><path d="M10.53,5.697l1.47,-1.47c0,-0 1.47,1.47 1.47,1.47c0.292,0.292 0.768,0.292 1.06,-0c0.293,-0.293 0.293,-0.768 0,-1.061l-2,-2c-0.293,-0.293 -0.767,-0.293 -1.06,-0l-2,2c-0.293,0.293 -0.293,0.768 -0,1.061c0.292,0.292 0.768,0.292 1.06,-0Z"></path></g></g></svg>