<svg xmlns="http://www.w3.org/2000/svg" xml:space="preserve" width="530px" height="530px" version="1.1" style="shape-rendering:geometricPrecision; text-rendering:geometricPrecision; image-rendering:optimizeQuality; fill-rule:evenodd; clip-rule:evenodd" viewBox="0 0 530 530" xmlns:xlink="http://www.w3.org/1999/xlink">
 <defs>
  <style type="text/css">
   
    .fil0 {fill:#000002}
   
  </style>
 </defs>
 <g id="Layer_x0020_1">
  <metadata id="CorelCorpID_0Corel-Layer"></metadata>
  <path class="fil0" d="M230 180c-5,0 -8,-5 -6,-10 18,-31 52,-25 67,-18 8,4 3,16 -5,12 -2,0 -34,-15 -50,13 -1,2 -3,3 -6,3zm-92 33c-14,-1 -32,-6 -29,-23 0,-6 0,-12 -7,-11 -13,1 -57,-3 -50,-31 5,-17 5,-19 -6,-17 -51,6 -46,-67 -4,-67 10,-34 37,-44 71,-19 38,-54 123,-9 88,47 25,39 -36,50 -39,59 0,0 1,3 8,7 2,1 3,2 5,3 5,-2 11,-3 17,-4 12,-65 101,-75 128,-16 31,-13 67,5 74,38 42,-19 90,14 87,61 -1,10 -5,20 -10,28 21,-5 33,-11 34,-11 8,-4 13,9 5,12 -2,2 -46,22 -106,22 -31,0 -65,-5 -101,-22 -98,-44 -195,0 -196,0 -7,4 -13,-8 -5,-12 1,-1 17,-8 41,-14 -4,-9 -6,-19 -5,-30zm39 -38c0,0 0,1 -1,1 -14,6 -23,22 -24,38 -1,9 1,18 5,26 39,-7 95,-9 152,17 51,23 102,23 139,16 11,-8 18,-20 19,-34 3,-40 -42,-66 -74,-43 -5,3 -11,-1 -11,-6 -1,-31 -36,-50 -62,-33 -3,2 -8,0 -10,-4 -7,-21 -25,-36 -47,-38 -30,-2 -56,19 -59,49 -1,9 -12,4 -27,11zm-15 -6c-7,-4 -14,-10 -14,-19 1,-18 41,-22 45,-39 2,-9 -11,-16 -6,-23 32,-45 -39,-78 -66,-29 -2,3 -7,4 -10,2 -11,-10 -27,-20 -39,-15 -14,5 -18,27 -19,27 -2,11 -16,-2 -26,13 -9,13 -5,34 17,31 6,-1 15,-1 21,5 5,7 4,17 0,29 -3,13 26,15 36,14 15,-2 23,12 21,27 -1,6 10,7 19,7 3,-12 11,-22 21,-30zm19 -86c-3,0 -6,-2 -7,-5 -5,-28 -30,-14 -29,-28 1,-4 4,-7 8,-6 19,1 31,13 35,31 1,4 -3,8 -7,8zm223 281c-31,0 -65,-6 -101,-22 -98,-45 -195,0 -196,0 -7,4 -13,-9 -5,-12 4,-2 103,-48 207,0 98,45 195,0 196,0 8,-4 13,8 5,12 -2,1 -46,22 -106,22zm0 72c-31,0 -65,-5 -101,-21 -98,-45 -195,-1 -196,0 -7,3 -13,-9 -5,-13 4,-2 103,-47 207,0 98,45 195,1 196,0 8,-3 13,9 5,13 -2,1 -46,21 -106,21zm0 73c-31,0 -65,-5 -101,-22 -98,-44 -195,0 -196,0 -7,4 -13,-8 -5,-12 4,-2 103,-47 207,0 98,45 195,1 196,0 8,-4 13,9 5,12 -2,2 -46,22 -106,22zm-91 -204c-1,0 -2,0 -3,0 -99,-45 -195,-1 -196,0 -8,3 -14,-9 -6,-13 4,-2 103,-47 207,0 7,3 5,13 -2,13zm0 147c-1,0 -2,0 -3,-1 -99,-45 -195,0 -196,0 -8,4 -14,-8 -6,-12 4,-2 103,-48 207,0 7,3 5,13 -2,13zm98 -52c-31,0 -66,-5 -101,-22 -8,-3 -3,-16 5,-12 99,45 195,0 196,0 8,-4 14,9 6,12 -3,2 -47,22 -106,22z"></path>
 </g>
</svg>