<svg version="1.0" id="Layer_1" xmlns="http://www.w3.org/2000/svg" xmlns:xlink="http://www.w3.org/1999/xlink" x="0px" y="0px" width="100px" height="100px" viewBox="0 0 100 100" enable-background="new 0 0 100 100" xml:space="preserve">
<path d="M73.333,26.667c-3.262-7.829-10.982-13.333-20-13.333c-12.421,0-22.825,8.506-25.794,20h-4.206
	C15.97,33.333,10,39.303,10,46.667C10,54.03,15.97,60,23.333,60H31.4l9.446-28.333H64.05l-6.66,16.667H70L61.25,60h12.083
	C82.539,60,90,52.539,90,43.333C90,34.127,82.539,26.667,73.333,26.667z"></path>
<polygon points="56.667,36.667 44.447,36.667 36.667,60 46.667,60 40,80 60,53.333 50.007,53.333 "></polygon>
<polygon points="14.445,66.667 10,80 17.028,80 21.473,66.667 "></polygon>
<polygon points="72.976,66.667 68.528,80 75.554,80 80,66.667 "></polygon>
<polygon points="26.305,73.333 21.86,86.667 28.888,86.667 33.333,73.333 "></polygon>
<polygon points="56.309,73.333 51.862,86.667 58.89,86.667 63.333,73.333 "></polygon>
</svg>