<svg id="visual" viewBox="0 0 900 600" width="900" height="600" xmlns="http://www.w3.org/2000/svg" xmlns:xlink="http://www.w3.org/1999/xlink" version="1.1"><rect x="0" y="0" width="900" height="600" fill="#001a33"></rect><path d="M0 189L129 189L129 296L257 296L257 235L386 235L386 199L514 199L514 169L643 169L643 210L771 210L771 282L900 282L900 225L900 601L900 601L771 601L771 601L643 601L643 601L514 601L514 601L386 601L386 601L257 601L257 601L129 601L129 601L0 601Z" fill="#003366"></path><path d="M0 350L129 350L129 349L257 349L257 245L386 245L386 266L514 266L514 293L643 293L643 232L771 232L771 220L900 220L900 358L900 601L900 601L771 601L771 601L643 601L643 601L514 601L514 601L386 601L386 601L257 601L257 601L129 601L129 601L0 601Z" fill="#1f508a"></path><path d="M0 399L129 399L129 373L257 373L257 390L386 390L386 325L514 325L514 371L643 371L643 354L771 354L771 281L900 281L900 408L900 601L900 601L771 601L771 601L643 601L643 601L514 601L514 601L386 601L386 601L257 601L257 601L129 601L129 601L0 601Z" fill="#386fb0"></path><path d="M0 408L129 408L129 393L257 393L257 430L386 430L386 476L514 476L514 479L643 479L643 383L771 383L771 445L900 445L900 382L900 601L900 601L771 601L771 601L643 601L643 601L514 601L514 601L386 601L386 601L257 601L257 601L129 601L129 601L0 601Z" fill="#4f90d7"></path><path d="M0 474L129 474L129 456L257 456L257 540L386 540L386 492L514 492L514 527L643 527L643 484L771 484L771 505L900 505L900 479L900 601L900 601L771 601L771 601L643 601L643 601L514 601L514 601L386 601L386 601L257 601L257 601L129 601L129 601L0 601Z" fill="#66b2ff"></path></svg>